<?xml version="1.0" encoding="UTF-8" standalone="no"?>
<svg version="1.1" xmlns="http://www.w3.org/2000/svg" xmlns:xlink="http://www.w3.org/1999/xlink" x="0" y="0" width="120" height="120" viewBox="0, 0, 120, 120">
  <defs>
    <clipPath id="Clip_1">
      <path d="M-0,0.119 L119.881,0.119 L119.881,119.993 L-0,119.993 z"/>
    </clipPath>
  </defs>
  <g id="Layer_1">
    <g clip-path="url(#Clip_1)">
      <path d="M92.949,58.223 L59.412,88.386 C58.959,88.795 58.26,88.758 57.851,88.303 L53.737,83.729 C53.328,83.276 53.365,82.575 53.818,82.167 L87.354,52.005 C87.808,51.594 88.508,51.633 88.918,52.088 L93.031,56.661 C93.44,57.115 93.404,57.816 92.949,58.223 M48.849,78.317 L44.734,73.743 C44.326,73.29 44.362,72.589 44.817,72.18 L78.351,42.018 C78.806,41.608 79.507,41.646 79.916,42.1 L84.029,46.675 C84.437,47.129 84.401,47.829 83.947,48.237 L50.41,78.4 C49.957,78.809 49.258,78.77 48.849,78.317 M38.93,68.031 L26.849,54.451 C26.44,53.996 26.479,53.295 26.933,52.886 L31.507,48.774 C31.961,48.365 32.661,48.402 33.07,48.855 L40.363,56.981 L68.435,31.732 C68.89,31.322 69.59,31.362 69.998,31.814 L74.112,36.389 C74.521,36.843 74.484,37.543 74.029,37.952 L40.606,68.114 C40.052,68.65 39.447,68.567 38.93,68.031 M59.941,0.119 C26.836,0.119 -0,26.955 -0,60.059 C-0,93.163 26.836,120 59.941,120 C93.045,120 119.881,93.163 119.881,60.059 C119.881,26.955 93.045,0.119 59.941,0.119" fill="#4999A8"/>
    </g>
  </g>
</svg>